<svg xmlns="http://www.w3.org/2000/svg" viewBox="0 0 374.97 68.23"><title>AppVeyor Logo</title><path d="M148.78,101.44a34.11,34.11,0,1,1-34.11,34.11,34.11,34.11,0,0,1,34.11-34.11h0Zm8.37,40.74A10.76,10.76,0,0,0,155.68,127a11,11,0,0,0-15.28,2,10.76,10.76,0,0,0,1.47,15.22,11,11,0,0,0,15.28-2h0Zm-18.22,22.14a29.57,29.57,0,0,0,8.77,1.67l14.84-21.44a16.5,16.5,0,0,0-3.14-22.22,16.69,16.69,0,0,0-20.3-.06l-20.63,16a30,30,0,0,0,2,8.34l11.78-12.87A16.12,16.12,0,0,0,152,151.82Z" transform="translate(-114.66 -101.44)" style="fill:#ffffff;fill-rule:evenodd"/><path d="M219.28,109.76L239,152.1h-4.55l-6.61-13.92H209.53L203,152.1h-4.72l20-42.34h1.06Zm-0.53,8.88-7.28,15.41H226Z" transform="translate(-114.66 -101.44)" style="fill:#ffffff;fill-rule:evenodd"/><path d="M245,120.79h4v5.76a15.93,15.93,0,0,1,5.49-4.9,14.77,14.77,0,0,1,6.94-1.62,15.5,15.5,0,0,1,11.42,4.8,15.81,15.81,0,0,1,4.75,11.54,16.13,16.13,0,0,1-4.71,11.7,15.87,15.87,0,0,1-18.22,3.25,17.4,17.4,0,0,1-5.67-4.64v16.86h-4V120.79h0Zm16.15,3.13a11.82,11.82,0,0,0-8.8,3.64,12.39,12.39,0,0,0-3.58,9.05,12.81,12.81,0,0,0,1.59,6.39,11.61,11.61,0,0,0,4.56,4.5,12.66,12.66,0,0,0,6.27,1.66,11.85,11.85,0,0,0,6.1-1.68,12.25,12.25,0,0,0,4.55-4.68,12.63,12.63,0,0,0,0-12.61A12.16,12.16,0,0,0,261.12,123.92Z" transform="translate(-114.66 -101.44)" style="fill:#ffffff;fill-rule:evenodd"/><path d="M285.19,120.79h4v5.76a15.93,15.93,0,0,1,5.49-4.9,14.77,14.77,0,0,1,6.94-1.62,15.5,15.5,0,0,1,11.42,4.8,15.81,15.81,0,0,1,4.75,11.54,16.13,16.13,0,0,1-4.71,11.7,15.87,15.87,0,0,1-18.22,3.25,17.4,17.4,0,0,1-5.67-4.64v16.86h-4V120.79h0Zm16.15,3.13a11.82,11.82,0,0,0-8.8,3.64A12.39,12.39,0,0,0,289,136.6a12.81,12.81,0,0,0,1.59,6.39,11.61,11.61,0,0,0,4.56,4.5,12.66,12.66,0,0,0,6.27,1.66,11.85,11.85,0,0,0,6.1-1.68,12.25,12.25,0,0,0,4.55-4.68,12.63,12.63,0,0,0,0-12.61A12.16,12.16,0,0,0,301.34,123.92Z" transform="translate(-114.66 -101.44)" style="fill:#ffffff;fill-rule:evenodd"/><polygon points="208.16 8.33 212.77 8.33 226.82 41.1 241.11 8.33 245.72 8.33 227.26 50.66 226.32 50.66 208.16 8.33" style="fill:#ffffff;fill-rule:evenodd"/><path d="M393.2,141.72l3.4,1.79a18.54,18.54,0,0,1-3.87,5.27,15.57,15.57,0,0,1-4.93,3,17.37,17.37,0,0,1-6.21,1q-7.69,0-12-5a16.85,16.85,0,0,1-4.33-11.32,16.64,16.64,0,0,1,3.68-10.59A15,15,0,0,1,381.35,120a15.54,15.54,0,0,1,12.83,6.06,16.86,16.86,0,0,1,3.47,10.68h-28.3a12.64,12.64,0,0,0,3.5,8.9,11.22,11.22,0,0,0,8.36,3.48,13.6,13.6,0,0,0,4.68-.83,12.26,12.26,0,0,0,3.86-2.19,18.51,18.51,0,0,0,3.44-4.41h0Zm0-8.43a13.33,13.33,0,0,0-2.36-5.15,11.22,11.22,0,0,0-4.11-3.11,12.62,12.62,0,0,0-5.36-1.18,11.58,11.58,0,0,0-8,3,13.37,13.37,0,0,0-3.69,6.48h23.48Z" transform="translate(-114.66 -101.44)" style="fill:#ffffff;fill-rule:evenodd"/><polygon points="287.05 19.35 291.24 19.35 302.04 43.36 312.53 19.35 316.83 19.35 298.14 62.1 293.84 62.1 299.98 48.09 287.05 19.35" style="fill:#ffffff;fill-rule:evenodd"/><path d="M451.54,120a15.54,15.54,0,0,1,12,5.23A16.71,16.71,0,0,1,463.3,148a16.63,16.63,0,0,1-23.57,0,16.67,16.67,0,0,1-.25-22.69,15.54,15.54,0,0,1,12-5.26h0Zm0,4a11.62,11.62,0,0,0-8.63,3.69,12.35,12.35,0,0,0-3.61,9,12.75,12.75,0,0,0,1.64,6.31,11.69,11.69,0,0,0,4.45,4.51,12.64,12.64,0,0,0,12.28,0,11.69,11.69,0,0,0,4.45-4.51,12.75,12.75,0,0,0,1.64-6.31,12.33,12.33,0,0,0-3.63-9A11.61,11.61,0,0,0,451.52,124Z" transform="translate(-114.66 -101.44)" style="fill:#ffffff;fill-rule:evenodd"/><path d="M473.77,120.79h4.13v4.58a14.18,14.18,0,0,1,3.89-4,7.81,7.81,0,0,1,4.26-1.32,7.38,7.38,0,0,1,3.58,1.06l-2.1,3.38a5.63,5.63,0,0,0-2.13-.55,5.84,5.84,0,0,0-3.89,1.65,10.52,10.52,0,0,0-2.86,5.14q-0.75,2.67-.75,10.81V152.1h-4.13V120.79Z" transform="translate(-114.66 -101.44)" style="fill:#ffffff;fill-rule:evenodd"/></svg>