<?xml version="1.0" standalone="no"?>
<!DOCTYPE svg PUBLIC "-//W3C//DTD SVG 20010904//EN"
 "http://www.w3.org/TR/2001/REC-SVG-20010904/DTD/svg10.dtd">
<svg version="1.0" xmlns="http://www.w3.org/2000/svg"
 width="460.000000pt" height="460.000000pt" viewBox="0 0 460.000000 460.000000"
 preserveAspectRatio="xMidYMid meet">
<metadata>
Created by potrace 1.11, written by Peter Selinger 2001-2013
</metadata>
<g transform="translate(0.000000,460.000000) scale(0.100000,-0.100000)"
fill="#000000" stroke="none">
<path d="M2070 4589 c-432 -47 -845 -215 -1190 -483 -95 -73 -292 -268 -369
-366 -352 -442 -528 -973 -508 -1525 15 -384 114 -736 299 -1060 347 -608 970
-1037 1656 -1140 134 -21 561 -20 697 0 113 17 323 70 435 110 127 45 369 169
489 249 259 174 473 388 647 647 80 120 204 362 249 489 40 112 93 322 110
435 20 136 21 563 0 697 -58 386 -235 790 -479 1093 -65 80 -244 262 -331 334
-316 264 -710 441 -1125 506 -125 19 -459 28 -580 14z m555 -1203 c304 -79
552 -283 698 -571 129 -258 144 -594 37 -886 -42 -117 -102 -212 -405 -649
-150 -217 -374 -540 -496 -718 l-223 -322 -50 0 c-132 1 -536 84 -536 111 0 4
194 193 430 420 237 226 429 414 426 416 -2 2 -32 -1 -66 -7 -79 -14 -271 -14
-351 0 -236 43 -432 144 -594 306 -137 137 -232 302 -281 489 -23 87 -27 121
-28 262 0 90 -4 163 -7 163 -3 0 -179 -189 -390 -420 -211 -231 -388 -419
-394 -417 -27 8 -118 346 -131 483 l-6 70 35 24 c19 14 142 108 272 210 131
102 261 203 290 225 30 22 120 92 202 156 607 474 655 510 788 577 91 45 151
65 280 92 133 29 362 22 500 -14z"/>
<path d="M2195 3015 c-160 -30 -270 -90 -396 -215 -82 -81 -102 -109 -142
-190 -65 -131 -81 -200 -81 -340 0 -140 17 -209 82 -335 97 -188 280 -322 492
-361 163 -29 305 -9 460 67 93 46 116 63 201 148 143 144 209 284 225 476 17
208 -60 411 -211 562 -58 56 -94 82 -176 122 -153 76 -292 96 -454 66z"/>
</g>
</svg>
