<svg xmlns="http://www.w3.org/2000/svg" viewBox="0 0 374.97 68.23"><path fill="#fff" fill-rule="evenodd" d="M34.12 0A34.11 34.11 0 1 1 .01 34.11 34.11 34.11 0 0 1 34.12 0zm8.37 40.74a10.76 10.76 0 0 0-1.47-15.18 11 11 0 0 0-15.28 2 10.76 10.76 0 0 0 1.47 15.22 11 11 0 0 0 15.28-2zM24.27 62.88a29.57 29.57 0 0 0 8.77 1.67l14.84-21.44a16.5 16.5 0 0 0-3.14-22.22 16.69 16.69 0 0 0-20.3-.06l-20.63 16a30 30 0 0 0 2 8.34L17.59 32.3a16.12 16.12 0 0 0 19.75 18.08zm80.35-54.56l19.72 42.34h-4.55l-6.61-13.92H94.87l-6.53 13.92h-4.72l20-42.34h1.06zm-.53 8.88l-7.28 15.41h14.53zm26.25 2.15h4v5.76a15.93 15.93 0 0 1 5.49-4.9 14.77 14.77 0 0 1 6.94-1.62 15.5 15.5 0 0 1 11.42 4.8 15.81 15.81 0 0 1 4.75 11.54 16.13 16.13 0 0 1-4.71 11.7 15.87 15.87 0 0 1-18.22 3.25 17.4 17.4 0 0 1-5.67-4.64V62.1h-4V19.35zm16.15 3.13a11.82 11.82 0 0 0-8.8 3.64 12.39 12.39 0 0 0-3.58 9.05 12.81 12.81 0 0 0 1.59 6.39 11.61 11.61 0 0 0 4.56 4.5 12.66 12.66 0 0 0 6.27 1.66 11.85 11.85 0 0 0 6.1-1.68 12.25 12.25 0 0 0 4.55-4.68 12.63 12.63 0 0 0 0-12.61 12.16 12.16 0 0 0-10.72-6.27zm24.04-3.13h4v5.76a15.93 15.93 0 0 1 5.49-4.9 14.77 14.77 0 0 1 6.94-1.62 15.5 15.5 0 0 1 11.42 4.8 15.81 15.81 0 0 1 4.75 11.54 16.13 16.13 0 0 1-4.71 11.7 15.87 15.87 0 0 1-18.22 3.25 17.4 17.4 0 0 1-5.67-4.64V62.1h-4V19.35zm16.15 3.13a11.82 11.82 0 0 0-8.8 3.64 12.39 12.39 0 0 0-3.54 9.04 12.81 12.81 0 0 0 1.59 6.39 11.61 11.61 0 0 0 4.56 4.5 12.66 12.66 0 0 0 6.27 1.66 11.85 11.85 0 0 0 6.1-1.68 12.25 12.25 0 0 0 4.55-4.68 12.63 12.63 0 0 0 0-12.61 12.16 12.16 0 0 0-10.73-6.26zm21.48-14.15h4.61l14.05 32.77 14.29-32.77h4.61l-18.46 42.33h-.94L208.16 8.33m70.38 31.95l3.4 1.79a18.54 18.54 0 0 1-3.87 5.27 15.57 15.57 0 0 1-4.93 3 17.37 17.37 0 0 1-6.21 1q-7.69 0-12-5a16.85 16.85 0 0 1-4.33-11.32 16.64 16.64 0 0 1 3.68-10.59 15 15 0 0 1 12.41-5.87 15.54 15.54 0 0 1 12.83 6.06 16.86 16.86 0 0 1 3.47 10.68h-28.3a12.64 12.64 0 0 0 3.5 8.9 11.22 11.22 0 0 0 8.36 3.48 13.6 13.6 0 0 0 4.68-.83 12.26 12.26 0 0 0 3.86-2.19 18.51 18.51 0 0 0 3.44-4.41zm0-8.43a13.33 13.33 0 0 0-2.36-5.15 11.22 11.22 0 0 0-4.11-3.11 12.62 12.62 0 0 0-5.36-1.18 11.58 11.58 0 0 0-8 3 13.37 13.37 0 0 0-3.69 6.48h23.48zm8.51-12.5h4.19l10.8 24.01 10.49-24.01h4.3L298.14 62.1h-4.3l6.14-14.01-12.93-28.74m49.83-.79a15.54 15.54 0 0 1 12 5.23 16.71 16.71 0 0 1-.24 22.77 16.63 16.63 0 0 1-23.57 0 16.67 16.67 0 0 1-.25-22.69 15.54 15.54 0 0 1 12-5.26zm0 4a11.62 11.62 0 0 0-8.63 3.69 12.35 12.35 0 0 0-3.61 9 12.75 12.75 0 0 0 1.64 6.31 11.69 11.69 0 0 0 4.45 4.51 12.64 12.64 0 0 0 12.28 0 11.69 11.69 0 0 0 4.45-4.51 12.75 12.75 0 0 0 1.64-6.31 12.33 12.33 0 0 0-3.63-9 11.61 11.61 0 0 0-8.61-3.69zm22.23-3.21h4.13v4.58a14.18 14.18 0 0 1 3.89-4 7.81 7.81 0 0 1 4.26-1.32 7.38 7.38 0 0 1 3.58 1.06l-2.1 3.38a5.63 5.63 0 0 0-2.13-.55 5.84 5.84 0 0 0-3.89 1.65 10.52 10.52 0 0 0-2.86 5.14q-.75 2.67-.75 10.81v10.56h-4.13V19.35z"/></svg>