<svg xmlns="http://www.w3.org/2000/svg" width="21.333" height="21.333" version="1" viewBox="0 0 16 16"><path d="M7.498.012C6.43.11 5.585.325 4.686.727c-.55.247-1.204.647-1.703 1.045-.322.258-.95.887-1.21 1.21C.838 4.16.253 5.554.053 7.095 0 7.52 0 8.422.056 8.88c.073.605.192 1.135.386 1.714.827 2.443 2.855 4.375 5.345 5.084 2.13.61 4.354.33 6.263-.787 1.157-.67 2.17-1.68 2.846-2.84.645-1.1.995-2.24 1.088-3.56.047-.63-.01-1.42-.152-2.11-.322-1.56-1.104-2.98-2.265-4.11-1.252-1.223-2.887-2-4.662-2.21-.29-.04-1.2-.063-1.405-.044zM8.88 4.156c.74.153 1.402.505 1.912 1.015.57.57.903 1.2 1.065 2.02.058.3.058 1.08 0 1.37-.114.57-.278.99-.557 1.44-.06.1-.88 1.29-1.825 2.66L7.76 15.13H7.6c-.193 0-.868-.095-1.21-.172-.282-.062-.675-.188-.675-.213 0-.01.68-.668 1.51-1.465.83-.796 1.505-1.45 1.503-1.454-.005-.003-.085.01-.178.032-.126.027-.302.036-.663.036-.425 0-.524-.007-.732-.05-.75-.16-1.39-.49-1.89-.974-.572-.548-.933-1.21-1.107-2.025-.045-.206-.052-.31-.055-.74 0-.27-.002-.495-.004-.495-.01 0-.62.67-1.37 1.49-.75.815-1.37 1.482-1.37 1.478-.01-.005-.07-.192-.15-.42-.15-.426-.24-.81-.29-1.25l-.03-.255.05-.05c.11-.108 4.77-3.71 4.97-3.846.42-.28.97-.507 1.462-.598.362-.07.346-.07.826-.06.336 0 .5.02.674.05z"/><path d="M7.578 5.507C6.48 5.745 5.656 6.614 5.484 7.71c-.04.264-.014.76.057 1.02.26.926 1 1.61 1.94 1.772.25.044.66.044.89 0 1.12-.212 1.97-1.088 2.15-2.212.05-.277.02-.757-.06-1.027-.23-.86-.89-1.508-1.77-1.74-.26-.07-.83-.08-1.11-.02z"/></svg>