<?xml version="1.0" standalone="no"?>
<!DOCTYPE svg PUBLIC "-//W3C//DTD SVG 20010904//EN"
 "http://www.w3.org/TR/2001/REC-SVG-20010904/DTD/svg10.dtd">
<svg version="1.0" xmlns="http://www.w3.org/2000/svg"
 width="16.000000pt" height="16.000000pt" viewBox="0 0 16.000000 16.000000"
 preserveAspectRatio="xMidYMid meet">
<metadata>
Created by potrace 1.11, written by Peter Selinger 2001-2013
</metadata>
<g transform="translate(0.000000,16.000000) scale(0.002286,-0.002286)"
fill="#000000" stroke="none">
<path d="M3280 6994 c-467 -43 -837 -137 -1230 -313 -241 -108 -527 -283 -745
-457 -141 -113 -416 -388 -529 -529 -410 -516 -666 -1126 -753 -1800 -24 -186
-23 -580 1 -780 32 -265 84 -497 169 -750 361 -1069 1248 -1914 2337 -2224
932 -267 1905 -144 2740 344 506 296 949 739 1245 1245 282 482 435 982 476
1558 20 274 -5 620 -67 922 -141 684 -483 1306 -991 1801 -547 534 -1262 872
-2038 964 -127 15 -525 27 -615 19z m605 -1813 c323 -67 613 -221 836 -444
249 -248 395 -525 466 -882 25 -128 25 -473 0 -600 -50 -247 -122 -433 -244
-627 -26 -42 -385 -565 -798 -1162 l-750 -1086 -70 0 c-85 0 -380 42 -530 76
-123 27 -295 82 -295 93 0 4 297 292 660 641 363 348 659 634 658 636 -2 1
-37 -5 -78 -14 -55 -12 -132 -16 -290 -16 -186 0 -229 3 -320 22 -328 70 -608
214 -827 426 -250 240 -408 529 -484 886 -20 90 -23 136 -24 323 0 119 -1 217
-2 217 -1 0 -270 -293 -599 -651 -328 -357 -597 -649 -599 -647 -2 2 -30 84
-63 183 -63 187 -102 355 -127 547 l-15 112 22 22 c50 47 2089 1623 2177 1682
183 123 424 222 640 262 158 29 151 28 361 25 147 -3 219 -9 295 -24z"/>
<path d="M3315 4590 c-480 -104 -841 -484 -916 -964 -18 -115 -6 -332 25 -446
111 -405 437 -704 845 -775 109 -19 287 -19 390 0 490 93 862 476 941 968 20
119 8 329 -25 447 -103 377 -391 660 -775 762 -114 30 -365 34 -485 8z"/>
</g>
</svg>
